<svg xmlns="http://www.w3.org/2000/svg" xmlns:xlink="http://www.w3.org/1999/xlink" width="768" height="1024" viewBox="0 0 768 1024"><defs><style>.a{clip-path:url(#b);}.b{fill:#f9a800;}.c{fill:#fff;}.d{fill:#f7a700;}.e{fill:#67aae7;}.f{fill:#c1e181;}.g{fill:#75be00;}.h{fill:#0f99e0;}.i{fill:#f28900;}.j{fill:#0599df;}.k{fill:#fb8600;}.l{fill:#0399df;}.m{fill:#5cadf3;}.n{fill:#8fcb36;}.o{fill:#9dd14a;}.p{fill:#8dca32;}.q{fill:#0496ea;}</style><clipPath id="b"><rect width="768" height="1024"/></clipPath></defs><g id="a" class="a"><rect class="c" width="768" height="1024"/><rect class="b" width="768" height="1024"/><g transform="translate(0 48)"><circle class="c" cx="155.5" cy="155.5" r="155.5" transform="translate(229 255)"/><g transform="translate(-415.567 -59.363)"><path class="d" d="M1047.982,428.894c6-4.494,12.147-8.813,17.98-13.517,13.364-10.778,25.39-23.711,28.231-48.376.951.051.806.871.995,1.432,7,20.859,12.658,42.059,15.362,63.933,2.6,21.007,2.818,41.93-4.359,62.26-4.073,11.538-10.541,21.478-20.68,28.649-16.357,11.567-38.989,11.589-55.861.17-1.169-.791-2.33-1.595-3.495-2.392a1.94,1.94,0,0,1,.249-1.059c5.663-5.778,10.621-12.016,14.043-19.466,4.84-10.541,6.987-21.63,8.074-33.1,1.128-11.9.116-23.656-1.233-35.433A4.177,4.177,0,0,1,1047.982,428.894Z" transform="translate(-199.152)"/><path class="e" d="M938.861,522.111a2.641,2.641,0,0,1-.045.348c-18.34,15.271-45.089,13.681-61.763.161-.247-1.084.633-1.545,1.228-2.114,12.139-11.594,17.893-26.217,20.181-42.488a9.341,9.341,0,0,1,.264-1.565,71.819,71.819,0,0,0,.91-11.063c.041-5.4.026-10.8,0-16.2a124.288,124.288,0,0,0-1.9-18.556c.039-.666.294-1.1,1.06-.978,9.708-6.429,19.067-13.293,27.257-21.638a63.725,63.725,0,0,0,18.256-37.368,1.842,1.842,0,0,1,.644-1.245c7.1,19.786,12.615,39.953,15.4,60.825-.454,1.608-1.8,2.414-3.03,3.291A141.493,141.493,0,0,0,938.914,449.1a54.717,54.717,0,0,0-15.289,28.283c-.17.843-.167,1.763-1.065,2.254-.343.05-.5-.394-.633-.4-.552-.021-.043.272-.017.332a12.729,12.729,0,0,1,.854,2.324,13.312,13.312,0,0,1,.243,2.88c-.192,2.28-.836,4.554-.05,6.841.851,10.435,5.571,19.035,12.553,26.579C936.677,519.452,938.253,520.372,938.861,522.111Z" transform="translate(-111.812 -1.406)"/><path class="f" d="M711.129,529.837c-.231-1.431-1.539-1.7-2.514-2.326-11.5-7.4-19.444-17.479-21.77-31.107-2.607-15.276,1.55-29.072,10.926-41.3,7.179-9.359,16.618-16.206,26.083-23,8.921-6.4,18.049-12.538,26.027-20.143,11.376-10.842,18.893-23.739,20.751-39.59a2.9,2.9,0,0,1,.429-.861,1.348,1.348,0,0,1,1.009,1.157c2.248,7.019,1.408,14.243,1.038,21.349-.6,11.483-4.758,22.038-9.741,32.261-2.015,4.136-3.024,4.133-5.677.329a19.816,19.816,0,0,1-3.306-6.309,12.819,12.819,0,0,1-.429-1.708,6.584,6.584,0,0,0,.656,2.4A73.825,73.825,0,0,0,758.1,432.54a5.459,5.459,0,0,1-.269,4.98c-3.786,7.108-8.056,13.92-12.5,20.625-2.32,3.5-3.636,3.385-5.625-.5-3.013-5.892-6.26-11.7-7.719-18.247a7.513,7.513,0,0,0-.219-1.481,7.626,7.626,0,0,0,.624,2.718c1.45,7.806,2.941,15.6,6.921,22.623a3.718,3.718,0,0,1-.208,4.262c-5.142,7.676-9.609,15.755-14.177,23.774-1.7,2.984-2.806,2.962-4.4-.116-5.345-10.337-10.21-20.87-12.63-32.3a6.629,6.629,0,0,0,.264,1.072c2.031,12.626,5.335,24.841,11.483,36.149a7.061,7.061,0,0,1,.414,6.531,139.134,139.134,0,0,0-7.515,24.916C712.351,528.452,712.4,529.569,711.129,529.837Z" transform="translate(0 -2.647)"/><path class="g" d="M738.432,458.056a152.9,152.9,0,0,0,14.485,35.666c4.162-7.67,7.642-15.11,12.581-21.53,3.6-4.683,3.663-8.488.957-13.573-2.962-5.567-3.971-11.926-4.5-18.256-.184-.661-.576-1.43.7-1.328a101.328,101.328,0,0,0,8.476,19.342,3.639,3.639,0,0,0,1.845,2.021,280.145,280.145,0,0,0,14.775-24.044c.619-1.147.213-2.04-.181-3.071-1.55-4.053-3.032-8.132-3.4-12.509-.193-.636-.53-1.345.65-1.288,1.391,3.564,3.658,6.561,6.063,9.9C801,411.3,804.7,392.443,801.829,372.32c-.16-.624.087-.793.663-.6,3.29,9.967,6.321,20.008,8.85,30.2q3.571,14.391,5.791,29.043l-.673.762c-.968,2.277-3.218,3.147-5.011,4.489-8.992,6.731-17.809,13.637-23.947,23.29-7.411,11.655-10.461,24.241-7.97,37.977a8.817,8.817,0,0,1,.235.936,44.373,44.373,0,0,0,11.355,20.509c1.46,1.517,3.545,2.608,3.9,5.005-13.1,10.708-27.915,12.848-43.946,8.763-4.035-1.028-4.108-1.142-4.462,2.974a130.31,130.31,0,0,0,1.992,36.741c.484,2.433.358,3.363-2.476,3.522-6.694.376-6.587.532-7.038-6.008a161.182,161.182,0,0,1,2.181-40.017,142,142,0,0,1,8.7-28.908c.7-1.6-.1-2.7-.751-3.938C743,485.2,738.833,472.71,737.772,459.279,737.521,458.618,737.274,457.959,738.432,458.056Z" transform="translate(-30.149 -2.721)"/><path class="h" d="M835.808,582.833c-2.768-11.043-.553-21.525,3.808-31.675,3.355-7.81,8.734-14.209,14.929-19.93a149.8,149.8,0,0,1,18.733-14.586c2.144,1.844,1.244,4.536,1.53,6.742.5,3.836,1.224,7.724.883,11.651a96.443,96.443,0,0,0,.006,16.947,38.165,38.165,0,0,1-1.236,11.208,1.33,1.33,0,0,1-.307-1.4,3.94,3.94,0,0,0,.258,2.622c-2.432,17.294-8.621,32.71-22.2,44.431l-.181.036-.182-.034c-7.345-6.446-12.863-14.1-15.6-23.59a17.453,17.453,0,0,1-.335-1.906c.114-.421.038.16.176-.25.165-.486.024-.991.169-1.468C836.037,582.009,836.279,582.554,835.808,582.833Z" transform="translate(-86.967 -87.633)"/><path class="i" d="M985.489,570.7l-.111-3.3c-.252-.613-.461-1.222.19-1.736,3.154-20.089,16.012-33.316,31.56-44.644,2.191-1.6,4.361-3.221,6.542-4.834,0,0,.291.073.291.073,1.023,10.45,2.477,20.892,1.979,31.417-.844,17.83-3.759,35.129-14.228,50.262a41.923,41.923,0,0,1-9.532,10.133c-9.6-7.836-15.429-17.755-16.674-30.2A32.449,32.449,0,0,0,985.489,570.7Z" transform="translate(-175.131 -87.366)"/><path class="j" d="M932.7,577.974a47.014,47.014,0,0,1-.006-16.948Q932.7,569.5,932.7,577.974Z" transform="translate(-143.975 -113.625)"/><path class="k" d="M985.422,647.735a8.94,8.94,0,0,1,.017,7.169A15.859,15.859,0,0,1,985.422,647.735Z" transform="translate(-175.064 -164.403)"/><path class="l" d="M929.725,627.195c-1.013-.986-.67-2.13-.441-3.35.752.647.305,1.451.49,2.124Q929.749,626.583,929.725,627.195Z" transform="translate(-142.28 -150.413)"/><path class="m" d="M985.106,634.413l-.19,1.736c-.68-.53-.575-1.285-.55-2,.008-.234-.058-.7.381-.528C984.94,633.692,984.991,634.136,985.106,634.413Z" transform="translate(-174.669 -156.114)"/><path class="n" d="M796.3,531.266l-.7,1.328c-.8-1.054-.6-2.222-.428-3.453C796.177,529.575,796.254,530.414,796.3,531.266Z" transform="translate(-63.802 -94.952)"/><path class="o" d="M737.912,578.038l-.659,1.223a6.334,6.334,0,0,1-.5-1.465c-.043-.447-.286-1.285.431-1.268C738,576.548,737.931,577.394,737.912,578.038Z" transform="translate(-29.629 -122.703)"/><path class="p" d="M849.837,484.912l-.649,1.288a2.6,2.6,0,0,1-.313-2.83C849.6,483.694,849.67,484.333,849.837,484.912Z" transform="translate(-95.172 -68.148)"/><path class="q" d="M837.48,672.782c.066-.7.132-1.394.241-2.542.622,1.4.666,2.275-.14,3.063A.463.463,0,0,1,837.48,672.782Z" transform="translate(-88.639 -177.582)"/></g></g></g></svg>