<svg xmlns="http://www.w3.org/2000/svg" xmlns:xlink="http://www.w3.org/1999/xlink" width="768" height="1024" viewBox="0 0 768 1024"><defs><style>.a{clip-path:url(#b);}.ad,.b,.e,.f,.h{fill:#fff;}.b{stroke:#707070;}.c{fill:#707070;}.c,.g{font-size:20px;}.c,.e,.g{font-family:HelveticaNeue, Helvetica Neue;}.d{fill:#0098e3;}.e{font-size:30px;}.f{stroke:#fba900;}.g{fill:#3c3b3b;}.h{stroke:#e4e4e4;}.i,.k,.l,.m{fill:#9b9b9b;}.i{font-size:14px;}.i,.l,.m{font-family:HelveticaNeue-Medium, Helvetica Neue;font-weight:500;}.j{fill:rgba(0,0,0,0.3);}.l{font-size:11px;}.m{font-size:10px;}.n{fill:#f7a700;}.o{fill:#67aae7;}.p{fill:#c1e181;}.q{fill:#75be00;}.r{fill:#0f99e0;}.s{fill:#f28900;}.t{fill:#0599df;}.u{fill:#fb8600;}.v{fill:#0399df;}.w{fill:#5cadf3;}.x{fill:#8fcb36;}.y{fill:#9dd14a;}.z{fill:#8dca32;}.aa{fill:#0496ea;}.ab{stroke:none;}.ac{fill:none;}</style><clipPath id="b"><rect width="768" height="1024"/></clipPath></defs><g id="a" class="a"><rect class="ad" width="768" height="1024"/><g class="b" transform="translate(152 580)"><circle class="ab" cx="8" cy="8" r="8"/><circle class="ac" cx="8" cy="8" r="7.5"/></g><text class="c" transform="translate(185 595)"><tspan x="0" y="0">Terceirizado</tspan></text><g class="b" transform="translate(152 533)"><circle class="ab" cx="8" cy="8" r="8"/><circle class="ac" cx="8" cy="8" r="7.5"/></g><text class="c" transform="translate(185 548)"><tspan x="0" y="0">Neoenergia</tspan></text><rect class="d" width="244" height="53" rx="26.5" transform="translate(262 734)"/><text class="e" transform="translate(344 772)"><tspan x="0" y="0">Entrar</tspan></text><g class="f" transform="translate(147 455)"><rect class="ab" width="487" height="53" rx="26.5"/><rect class="ac" x="0.5" y="0.5" width="486" height="52" rx="26"/></g><text class="g" transform="translate(168 489)"><tspan x="0" y="0">150256802914</tspan></text><g class="f" transform="translate(147 378)"><rect class="ab" width="487" height="53" rx="26.5"/><rect class="ac" x="0.5" y="0.5" width="486" height="52" rx="26"/></g><text class="g" transform="translate(168 412)"><tspan x="0" y="0">João Carlos Marciel</tspan></text><g class="h"><rect class="ab" width="768" height="44"/><rect class="ac" x="0.5" y="0.5" width="767" height="43"/></g><text class="i" transform="translate(91 28)"><tspan x="0" y="0">15:36</tspan></text><g transform="translate(639.462 13.085)"><path class="j" d="M18.389,4.82H16.87V3H13.23V4.82H11.71A1.216,1.216,0,0,0,10.5,6.03V8.46h4.978l.482-.91v.91H19.6V6.03A1.216,1.216,0,0,0,18.389,4.82Z" transform="translate(-10.5 -3)"/><path class="k" d="M15.96,16.095h1.82L14.14,22.92v-5H12.32L15.478,12H10.5V23.529a1.216,1.216,0,0,0,1.21,1.21h6.67a1.218,1.218,0,0,0,1.219-1.21V12H15.96Z" transform="translate(-10.5 -6.54)"/><text class="l" transform="translate(16.538 14.183)"><tspan x="0" y="0">78%</tspan></text></g><g transform="translate(579.216 11.612)"><g transform="translate(12.514 1.655)"><path class="j" d="M21.271,8.481V3L3,21.271H21.271Z" transform="translate(-3 -3)"/><path class="k" d="M16.7,24.2V10.5L3,24.2Z" transform="translate(-3 -5.932)"/></g><text class="m" transform="translate(0.104 10.388)"><tspan x="0" y="0">4G</tspan></text></g><path class="k" d="M7.266,4.952,6.178,3.864a7.928,7.928,0,0,0-3.133,5.97H4.566A6.423,6.423,0,0,1,7.266,4.952Zm9.422,4.882h1.521a7.976,7.976,0,0,0-3.133-5.97L14,4.952A6.461,6.461,0,0,1,16.688,9.834Zm-1.5.38a4.634,4.634,0,0,0-3.422-4.806V4.891a1.141,1.141,0,1,0-2.281,0v.517a4.62,4.62,0,0,0-3.422,4.806v3.8L4.543,15.537v.76H16.711v-.76L15.19,14.017Zm-4.563,8.365a1.332,1.332,0,0,0,.3-.03,1.543,1.543,0,0,0,1.1-.9,1.527,1.527,0,0,0,.114-.593H9.1A1.532,1.532,0,0,0,10.627,18.579Z" transform="translate(544.955 11.977)"/><path class="k" d="M10.391,3.394a6.354,6.354,0,1,0,4.493,1.861A6.312,6.312,0,0,0,10.391,3.394Zm0-1.466a7.82,7.82,0,1,1-7.82,7.82,7.82,7.82,0,0,1,7.82-7.82ZM9.413,12.68h1.955v1.955H9.413Zm0-7.82h1.955v5.865H9.413Z" transform="translate(500.789 13.142)"/><g transform="translate(51 -147)"><g class="f" transform="translate(229 255)"><circle class="ab" cx="104.5" cy="104.5" r="104.5"/><circle class="ac" cx="104.5" cy="104.5" r="104"/></g><g transform="translate(256.898 290.373)"><path class="n" d="M1040.823,408.594c4.034-3.02,8.163-5.923,12.083-9.084,8.981-7.243,17.063-15.934,18.972-32.51.639.034.542.585.668.962,4.705,14.018,8.507,28.265,10.324,42.965,1.745,14.117,1.894,28.178-2.929,41.841-2.737,7.754-7.084,14.434-13.9,19.253a33.3,33.3,0,0,1-37.54.114c-.786-.532-1.566-1.072-2.349-1.608a1.3,1.3,0,0,1,.168-.711,46.506,46.506,0,0,0,9.437-13.082c3.253-7.084,4.7-14.536,5.426-22.242.758-8,.078-15.9-.829-23.812A2.808,2.808,0,0,1,1040.823,408.594Z" transform="translate(-931.451 -367)"/><path class="o" d="M918.576,472.026a1.781,1.781,0,0,1-.03.234c-12.325,10.262-30.3,9.194-41.506.108-.166-.728.425-1.038.825-1.42,8.158-7.792,12.025-17.618,13.562-28.553a6.272,6.272,0,0,1,.177-1.052,48.265,48.265,0,0,0,.611-7.435c.028-3.631.017-7.261,0-10.889a83.516,83.516,0,0,0-1.274-12.47c.026-.448.2-.739.712-.657a111.3,111.3,0,0,0,18.317-14.541,42.824,42.824,0,0,0,12.268-25.112,1.238,1.238,0,0,1,.433-.837,198.544,198.544,0,0,1,10.349,40.876,4.335,4.335,0,0,1-2.036,2.212,95.076,95.076,0,0,0-12.371,10.471,36.771,36.771,0,0,0-10.274,19.007c-.114.566-.112,1.185-.716,1.515-.23.033-.339-.265-.426-.268-.371-.014-.029.183-.011.223a8.559,8.559,0,0,1,.574,1.562,8.947,8.947,0,0,1,.163,1.936c-.129,1.532-.562,3.06-.034,4.6.572,7.013,3.744,12.792,8.436,17.862C917.108,470.239,918.167,470.857,918.576,472.026Z" transform="translate(-823.841 -368.732)"/><path class="p" d="M702.913,477.913c-.155-.962-1.034-1.141-1.689-1.563-7.728-4.974-13.067-11.746-14.63-20.9-1.752-10.266,1.042-19.537,7.342-27.752,4.824-6.29,11.167-10.891,17.528-15.454,6-4.3,12.129-8.426,17.491-13.536,7.645-7.286,12.7-15.953,13.945-26.606a1.951,1.951,0,0,1,.288-.578.906.906,0,0,1,.678.778c1.511,4.717.946,9.572.7,14.347-.4,7.717-3.2,14.81-6.546,21.681-1.354,2.779-2.032,2.778-3.815.221a13.319,13.319,0,0,1-2.222-4.24,8.613,8.613,0,0,1-.288-1.148,4.425,4.425,0,0,0,.441,1.615,49.6,49.6,0,0,0,2.344,7.754,3.668,3.668,0,0,1-.181,3.346c-2.544,4.777-5.414,9.355-8.4,13.86-1.559,2.353-2.443,2.275-3.78-.339-2.025-3.959-4.207-7.86-5.187-12.262a5.047,5.047,0,0,0-.147-1,5.124,5.124,0,0,0,.419,1.826c.975,5.246,1.977,10.483,4.651,15.2a2.5,2.5,0,0,1-.14,2.864c-3.456,5.159-6.457,10.588-9.528,15.977-1.142,2.005-1.886,1.99-2.955-.078-3.592-6.947-6.862-14.025-8.488-21.706a4.462,4.462,0,0,0,.178.72c1.365,8.485,3.585,16.694,7.717,24.293a4.745,4.745,0,0,1,.278,4.389,93.5,93.5,0,0,0-5.051,16.744C703.735,476.982,703.768,477.733,702.913,477.913Z" transform="translate(-686.08 -370.261)"/><path class="q" d="M738.146,429.716a102.75,102.75,0,0,0,9.734,23.968c2.8-5.155,5.136-10.154,8.455-14.469,2.421-3.147,2.462-5.7.643-9.122-1.991-3.741-2.669-8.014-3.023-12.269-.124-.444-.387-.961.468-.892a68.1,68.1,0,0,0,5.7,13,2.446,2.446,0,0,0,1.24,1.358,188.26,188.26,0,0,0,9.929-16.158,2.209,2.209,0,0,0-.121-2.064,30.993,30.993,0,0,1-2.288-8.406c-.129-.427-.356-.9.437-.866a30.737,30.737,0,0,0,4.074,6.65,59.153,59.153,0,0,0,7.36-38.346c-.108-.419.058-.533.446-.4,2.211,6.7,4.248,13.446,5.948,20.3q2.4,9.671,3.892,19.518l-.453.512c-.65,1.53-2.162,2.115-3.368,3.017-6.043,4.523-11.968,9.165-16.093,15.652-4.981,7.833-7.03,16.29-5.356,25.522a5.93,5.93,0,0,1,.158.629,29.819,29.819,0,0,0,7.631,13.783c.981,1.02,2.382,1.753,2.624,3.364-8.8,7.2-18.76,8.634-29.533,5.889-2.712-.691-2.761-.768-3,2a87.572,87.572,0,0,0,1.338,24.691c.326,1.635.241,2.26-1.664,2.367-4.5.253-4.426.358-4.73-4.037A108.32,108.32,0,0,1,740.059,478a95.423,95.423,0,0,1,5.845-19.427c.469-1.075-.068-1.816-.5-2.647a65.373,65.373,0,0,1-7.7-25.393C737.535,430.093,737.368,429.65,738.146,429.716Z" transform="translate(-723.225 -370.352)"/><path class="r" d="M835.407,561.124c-1.86-7.421-.372-14.465,2.559-21.286A39.845,39.845,0,0,1,848,526.444a100.667,100.667,0,0,1,12.589-9.8c1.441,1.239.836,3.048,1.028,4.531a36.328,36.328,0,0,1,.593,7.83,64.811,64.811,0,0,0,0,11.389,25.649,25.649,0,0,1-.83,7.532.894.894,0,0,1-.207-.939,2.648,2.648,0,0,0,.173,1.762c-1.634,11.622-5.793,21.982-14.921,29.859l-.122.025-.122-.023A33.151,33.151,0,0,1,835.7,562.755a11.738,11.738,0,0,1-.225-1.281c.077-.283.025.107.118-.168.111-.326.016-.666.114-.987C835.561,560.571,835.724,560.937,835.407,561.124Z" transform="translate(-793.23 -474.97)"/><path class="s" d="M985.373,552.82,985.3,550.6c-.17-.412-.31-.821.128-1.167,2.12-13.5,10.761-22.389,21.209-30,1.472-1.073,2.931-2.165,4.4-3.249l.2.049c.688,7.023,1.665,14.04,1.33,21.113-.567,11.982-2.526,23.607-9.562,33.778a28.173,28.173,0,0,1-6.406,6.81c-6.453-5.266-10.369-11.932-11.205-20.3A21.809,21.809,0,0,0,985.373,552.82Z" transform="translate(-901.855 -474.642)"/><path class="t" d="M932.451,572.416a31.6,31.6,0,0,1,0-11.389Q932.449,566.722,932.451,572.416Z" transform="translate(-863.468 -506.995)"/><path class="u" d="M985.291,647.735a6.007,6.007,0,0,1,.012,4.818A10.658,10.658,0,0,1,985.291,647.735Z" transform="translate(-901.773 -569.557)"/><path class="v" d="M929.5,626.1c-.681-.663-.451-1.432-.3-2.251.505.435.205.975.329,1.427Q929.516,625.685,929.5,626.1Z" transform="translate(-861.38 -552.32)"/><path class="w" d="M984.856,634.14l-.128,1.167c-.457-.356-.387-.863-.37-1.346.005-.158-.039-.469.256-.355C984.745,633.656,984.779,633.954,984.856,634.14Z" transform="translate(-901.285 -559.345)"/><path class="x" d="M795.886,530.569l-.467.892a2.887,2.887,0,0,1-.288-2.32C795.8,529.433,795.852,530,795.886,530.569Z" transform="translate(-764.688 -483.988)"/><path class="y" d="M737.506,577.543l-.443.822a4.257,4.257,0,0,1-.339-.985c-.029-.3-.192-.864.289-.852C737.565,576.542,737.519,577.11,737.506,577.543Z" transform="translate(-722.585 -518.18)"/><path class="z" d="M849.43,484.407l-.436.865a1.749,1.749,0,0,1-.21-1.9C849.27,483.588,849.317,484.017,849.43,484.407Z" transform="translate(-803.339 -450.964)"/><path class="aa" d="M837.467,671.948c.045-.468.089-.937.162-1.708.418.938.447,1.529-.094,2.058A.311.311,0,0,1,837.467,671.948Z" transform="translate(-795.29 -585.795)"/></g></g></g></svg>