<svg xmlns="http://www.w3.org/2000/svg" xmlns:xlink="http://www.w3.org/1999/xlink" width="768" height="1024" viewBox="0 0 768 1024"><defs><style>.a{clip-path:url(#p);}.b,.j,.m,.n,.p{fill:#fff;}.b{stroke:#e4e4e4;}.c,.e,.f,.g{fill:#9b9b9b;}.c{font-size:14px;}.c,.f,.g,.l{font-family:HelveticaNeue-Medium, Helvetica Neue;font-weight:500;}.d{fill:rgba(0,0,0,0.3);}.f{font-size:11px;}.g{font-size:10px;}.h{fill:#ff9100;font-size:28px;}.h,.k{font-family:HelveticaNeue-Bold, Helvetica Neue;font-weight:700;}.i,.s{fill:none;}.i{stroke:#666;stroke-linecap:round;stroke-linejoin:round;stroke-width:3px;}.j{stroke:#0095e9;}.k{fill:#484646;}.k,.l{font-size:17px;}.l{fill:#707070;}.o{fill:#abaaac;}.p{stroke:#efeded;}.q{fill:#43a8ff;}.r,.t{stroke:none;}.t{fill:#e4e4e4;}.u{filter:url(#m);}.v{filter:url(#k);}.w{filter:url(#i);}.x{filter:url(#g);}.y{filter:url(#e);}.z{filter:url(#c);}.aa{filter:url(#a);}</style><filter id="a" x="71" y="301" width="289" height="210" filterUnits="userSpaceOnUse"><feOffset dy="3" input="SourceAlpha"/><feGaussianBlur stdDeviation="3" result="b"/><feFlood flood-opacity="0.161"/><feComposite operator="in" in2="b"/><feComposite in="SourceGraphic"/></filter><filter id="c" x="408" y="301" width="289" height="210" filterUnits="userSpaceOnUse"><feOffset dy="3" input="SourceAlpha"/><feGaussianBlur stdDeviation="3" result="d"/><feFlood flood-opacity="0.161"/><feComposite operator="in" in2="d"/><feComposite in="SourceGraphic"/></filter><filter id="e" x="71" y="549" width="289" height="210" filterUnits="userSpaceOnUse"><feOffset dy="3" input="SourceAlpha"/><feGaussianBlur stdDeviation="3" result="f"/><feFlood flood-opacity="0.161"/><feComposite operator="in" in2="f"/><feComposite in="SourceGraphic"/></filter><filter id="g" x="408" y="549" width="289" height="210" filterUnits="userSpaceOnUse"><feOffset dy="3" input="SourceAlpha"/><feGaussianBlur stdDeviation="3" result="h"/><feFlood flood-opacity="0.161"/><feComposite operator="in" in2="h"/><feComposite in="SourceGraphic"/></filter><filter id="i" x="71" y="797" width="289" height="210" filterUnits="userSpaceOnUse"><feOffset dy="3" input="SourceAlpha"/><feGaussianBlur stdDeviation="3" result="j"/><feFlood flood-opacity="0.161"/><feComposite operator="in" in2="j"/><feComposite in="SourceGraphic"/></filter><filter id="k" x="408" y="797" width="289" height="210" filterUnits="userSpaceOnUse"><feOffset dy="3" input="SourceAlpha"/><feGaussianBlur stdDeviation="3" result="l"/><feFlood flood-opacity="0.161"/><feComposite operator="in" in2="l"/><feComposite in="SourceGraphic"/></filter><filter id="m" x="320.5" y="878" width="127" height="127" filterUnits="userSpaceOnUse"><feOffset dy="7" input="SourceAlpha"/><feGaussianBlur stdDeviation="3" result="n"/><feFlood flood-opacity="0.161"/><feComposite operator="in" in2="n"/><feComposite in="SourceGraphic"/></filter><clipPath id="p"><rect width="768" height="1024"/></clipPath></defs><g id="o" class="a"><rect class="m" width="768" height="1024"/><g class="b"><rect class="r" width="768" height="44"/><rect class="s" x="0.5" y="0.5" width="767" height="43"/></g><text class="c" transform="translate(91 28)"><tspan x="0" y="0">15:36</tspan></text><g transform="translate(639.462 13.085)"><path class="d" d="M18.389,4.82H16.87V3H13.23V4.82H11.71A1.216,1.216,0,0,0,10.5,6.03V8.46h4.978l.482-.91v.91H19.6V6.03A1.216,1.216,0,0,0,18.389,4.82Z" transform="translate(-10.5 -3)"/><path class="e" d="M15.96,16.095h1.82L14.14,22.92v-5H12.32L15.478,12H10.5V23.529a1.216,1.216,0,0,0,1.21,1.21h6.67a1.218,1.218,0,0,0,1.219-1.21V12H15.96Z" transform="translate(-10.5 -6.54)"/><text class="f" transform="translate(16.538 14.183)"><tspan x="0" y="0">78%</tspan></text></g><g transform="translate(579.216 11.612)"><g transform="translate(12.514 1.655)"><path class="d" d="M21.271,8.481V3L3,21.271H21.271Z" transform="translate(-3 -3)"/><path class="e" d="M16.7,24.2V10.5L3,24.2Z" transform="translate(-3 -5.932)"/></g><text class="g" transform="translate(0.104 10.388)"><tspan x="0" y="0">4G</tspan></text></g><path class="e" d="M7.266,4.952,6.178,3.864a7.928,7.928,0,0,0-3.133,5.97H4.566A6.423,6.423,0,0,1,7.266,4.952Zm9.422,4.882h1.521a7.976,7.976,0,0,0-3.133-5.97L14,4.952A6.461,6.461,0,0,1,16.688,9.834Zm-1.5.38a4.634,4.634,0,0,0-3.422-4.806V4.891a1.141,1.141,0,1,0-2.281,0v.517a4.62,4.62,0,0,0-3.422,4.806v3.8L4.543,15.537v.76H16.711v-.76L15.19,14.017Zm-4.563,8.365a1.332,1.332,0,0,0,.3-.03,1.543,1.543,0,0,0,1.1-.9,1.527,1.527,0,0,0,.114-.593H9.1A1.532,1.532,0,0,0,10.627,18.579Z" transform="translate(544.955 11.977)"/><path class="e" d="M10.391,3.394a6.354,6.354,0,1,0,4.493,1.861A6.312,6.312,0,0,0,10.391,3.394Zm0-1.466a7.82,7.82,0,1,1-7.82,7.82,7.82,7.82,0,0,1,7.82-7.82ZM9.413,12.68h1.955v1.955H9.413Zm0-7.82h1.955v5.865H9.413Z" transform="translate(500.789 13.142)"/><text class="h" transform="translate(191 207)"><tspan x="0" y="0">Mural de Ordens de Serviços</tspan></text><g transform="translate(88.5 97)"><path class="i" d="M4.5,18h27"/><path class="i" d="M4.5,9h27"/><path class="i" d="M4.5,27h27"/></g><g transform="translate(641.5 102.5)"><path class="i" d="M19.637,12.069A7.569,7.569,0,1,1,12.069,4.5a7.569,7.569,0,0,1,7.569,7.569Z"/><path class="i" d="M29.09,29.09l-4.115-4.115" transform="translate(-7.561 -7.561)"/></g><g class="aa" transform="matrix(1, 0, 0, 1, 0, 0)"><g class="j" transform="translate(80 307)"><rect class="r" width="271" height="192" rx="18"/><rect class="s" x="0.5" y="0.5" width="270" height="191" rx="17.5"/></g></g><text class="k" transform="translate(104 342)"><tspan x="0" y="0">Ordem de Serviço - 5027</tspan></text><text class="l" transform="translate(104 385)"><tspan x="0" y="0">End: xxxxx</tspan></text><text class="l" transform="translate(104 420)"><tspan x="0" y="0">Nome do proprietário: xxxxx</tspan></text><text class="l" transform="translate(104 455)"><tspan x="0" y="0">Telefone: (00) xxxxx-xxxx</tspan></text><g transform="translate(337)"><g class="z" transform="matrix(1, 0, 0, 1, -337, 0)"><g class="j" transform="translate(417 307)"><rect class="r" width="271" height="192" rx="18"/><rect class="s" x="0.5" y="0.5" width="270" height="191" rx="17.5"/></g></g><text class="k" transform="translate(104 342)"><tspan x="0" y="0">Ordem de Serviço - 5046</tspan></text><text class="l" transform="translate(104 385)"><tspan x="0" y="0">End: xxxxx</tspan></text><text class="l" transform="translate(104 420)"><tspan x="0" y="0">Nome do proprietário: xxxxx</tspan></text><text class="l" transform="translate(104 455)"><tspan x="0" y="0">Telefone: (00) xxxxx-xxxx</tspan></text></g><g transform="translate(0 248)"><g class="y" transform="matrix(1, 0, 0, 1, 0, -248)"><g class="j" transform="translate(80 555)"><rect class="r" width="271" height="192" rx="18"/><rect class="s" x="0.5" y="0.5" width="270" height="191" rx="17.5"/></g></g><text class="k" transform="translate(104 342)"><tspan x="0" y="0">Ordem de Serviço - 5068</tspan></text><text class="l" transform="translate(104 385)"><tspan x="0" y="0">End: xxxxx</tspan></text><text class="l" transform="translate(104 420)"><tspan x="0" y="0">Nome do proprietário: xxxxx</tspan></text><text class="l" transform="translate(104 455)"><tspan x="0" y="0">Telefone: (00) xxxxx-xxxx</tspan></text></g><g transform="translate(337 248)"><g class="x" transform="matrix(1, 0, 0, 1, -337, -248)"><g class="j" transform="translate(417 555)"><rect class="r" width="271" height="192" rx="18"/><rect class="s" x="0.5" y="0.5" width="270" height="191" rx="17.5"/></g></g><text class="k" transform="translate(104 342)"><tspan x="0" y="0">Ordem de Serviço - 5046</tspan></text><text class="l" transform="translate(104 385)"><tspan x="0" y="0">End: xxxxx</tspan></text><text class="l" transform="translate(104 420)"><tspan x="0" y="0">Nome do proprietário: xxxxx</tspan></text><text class="l" transform="translate(104 455)"><tspan x="0" y="0">Telefone: (00) xxxxx-xxxx</tspan></text></g><g transform="translate(0 496)"><g class="w" transform="matrix(1, 0, 0, 1, 0, -496)"><g class="j" transform="translate(80 803)"><rect class="r" width="271" height="192" rx="18"/><rect class="s" x="0.5" y="0.5" width="270" height="191" rx="17.5"/></g></g><text class="k" transform="translate(104 342)"><tspan x="0" y="0">Ordem de Serviço - 5068</tspan></text><text class="l" transform="translate(104 385)"><tspan x="0" y="0">End: xxxxx</tspan></text><text class="l" transform="translate(104 420)"><tspan x="0" y="0">Nome do proprietário: xxxxx</tspan></text><text class="l" transform="translate(104 455)"><tspan x="0" y="0">Telefone: (00) xxxxx-xxxx</tspan></text></g><g transform="translate(337 496)"><g class="v" transform="matrix(1, 0, 0, 1, -337, -496)"><g class="j" transform="translate(417 803)"><rect class="r" width="271" height="192" rx="18"/><rect class="s" x="0.5" y="0.5" width="270" height="191" rx="17.5"/></g></g><text class="k" transform="translate(104 342)"><tspan x="0" y="0">Ordem de Serviço - 5080</tspan></text><text class="l" transform="translate(104 385)"><tspan x="0" y="0">End: xxxxx</tspan></text><text class="l" transform="translate(104 420)"><tspan x="0" y="0">Nome do proprietário: xxxxx</tspan></text><text class="l" transform="translate(104 455)"><tspan x="0" y="0">Telefone: (00) xxxxx-xxxx</tspan></text></g><rect class="m" width="768" height="90" transform="translate(0 934)"/><g class="n" transform="translate(1682 883)"><path class="r" d="M -914.5004272460938 140.5002593994141 L -1681.500122070312 140.5002593994141 L -1681.500122070312 51.50026321411133 L -1357.031982421875 51.50026321411133 C -1357.3427734375 53.97473526000977 -1357.500244140625 56.49478530883789 -1357.500244140625 59.00036239624023 C -1357.500244140625 67.03216552734375 -1355.927001953125 74.82426452636719 -1352.82421875 82.16036224365234 C -1351.332885742188 85.68616485595703 -1349.4873046875 89.08656311035156 -1347.33837890625 92.26736450195312 C -1345.20947265625 95.41836547851562 -1342.765014648438 98.38096618652344 -1340.0732421875 101.0728607177734 C -1337.3798828125 103.7658615112305 -1334.417236328125 106.2101593017578 -1331.267578125 108.3379592895508 C -1328.086181640625 110.4871597290039 -1324.685668945312 112.3328628540039 -1321.160522460938 113.823860168457 C -1313.824462890625 116.9266662597656 -1306.032104492188 118.4998626708984 -1297.999877929688 118.4998626708984 C -1289.9677734375 118.4998626708984 -1282.175537109375 116.9266662597656 -1274.839721679688 113.823860168457 C -1271.314819335938 112.3330612182617 -1267.914306640625 110.4873657226562 -1264.732788085938 108.3379592895508 C -1261.582397460938 106.2097625732422 -1258.619873046875 103.7653656005859 -1255.92724609375 101.0728607177734 C -1253.235595703125 98.38116455078125 -1250.791137695312 95.41856384277344 -1248.662109375 92.26736450195312 C -1246.51318359375 89.08656311035156 -1244.667602539062 85.68616485595703 -1243.17626953125 82.16036224365234 C -1240.073486328125 74.82436370849609 -1238.500366210938 67.03226470947266 -1238.500366210938 59.00036239624023 C -1238.500366210938 56.49497222900391 -1238.657836914062 53.97489547729492 -1238.96875 51.50026321411133 L -914.5004272460938 51.50026321411133 L -914.5004272460938 140.5002593994141 Z"/><path class="t" d="M -915.0004272460938 140.0002593994141 L -915.0004272460938 52.00026321411133 L -1238.404663085938 52.00026321411133 C -1238.13623046875 54.31439590454102 -1238.000366210938 56.66371154785156 -1238.000366210938 59.00036239624023 C -1238.000366210938 67.09946441650391 -1239.586791992188 74.95716094970703 -1242.715698242188 82.35516357421875 C -1244.219604492188 85.91065979003906 -1246.080810546875 89.33975982666016 -1248.247802734375 92.54726409912109 C -1250.394653320312 95.72486114501953 -1252.859497070312 98.71216583251953 -1255.57373046875 101.4263610839844 C -1258.288818359375 104.1414642333984 -1261.276123046875 106.6062622070312 -1264.452880859375 108.7522659301758 C -1267.661254882812 110.9197616577148 -1271.09033203125 112.7810592651367 -1274.644897460938 114.2843627929688 C -1282.042724609375 117.4133605957031 -1289.900390625 118.9998626708984 -1297.999877929688 118.9998626708984 C -1306.099365234375 118.9998626708984 -1313.957275390625 117.4133605957031 -1321.355224609375 114.2843627929688 C -1324.910278320312 112.78076171875 -1328.33935546875 110.919563293457 -1331.547485351562 108.7522659301758 C -1334.723388671875 106.6066665649414 -1337.710815429688 104.141960144043 -1340.4267578125 101.4263610839844 C -1343.14111328125 98.71195983886719 -1345.60595703125 95.72466278076172 -1347.752685546875 92.54726409912109 C -1349.919677734375 89.33975982666016 -1351.780883789062 85.91065979003906 -1353.284790039062 82.35506439208984 C -1356.413696289062 74.95706176757812 -1358.000244140625 67.09946441650391 -1358.000244140625 59.00036239624023 C -1358.000244140625 56.66370391845703 -1357.864379882812 54.31410980224609 -1357.595947265625 52.00026321411133 L -1681.000122070312 52.00026321411133 L -1681.000122070312 140.0002593994141 L -915.0004272460938 140.0002593994141 M -914.0004272460938 141.0012664794922 L -914.0004272460938 141.0002593994141 L -1682.000122070312 141.0002593994141 L -1682.000122070312 51.00026321411133 L -1356.46240234375 51.00026321411133 C -1356.818969726562 53.63126373291016 -1357.000244140625 56.32246398925781 -1357.000244140625 59.00036239624023 C -1357.000244140625 66.96526336669922 -1355.440185546875 74.69186401367188 -1352.36376953125 81.96556091308594 C -1350.885009765625 85.46156311035156 -1349.054809570312 88.83346557617188 -1346.924072265625 91.98746490478516 C -1344.812744140625 95.11236572265625 -1342.388793945312 98.05016326904297 -1339.719604492188 100.7192611694336 C -1337.049194335938 103.3894653320312 -1334.111450195312 105.813362121582 -1330.987670898438 107.9236602783203 C -1327.8330078125 110.0547637939453 -1324.461181640625 111.8849639892578 -1320.965698242188 113.3633651733398 C -1313.691772460938 116.4398651123047 -1305.964965820312 117.9998626708984 -1297.999877929688 117.9998626708984 C -1290.034912109375 117.9998626708984 -1282.308227539062 116.4398651123047 -1275.034545898438 113.3633651733398 C -1271.539184570312 111.8850631713867 -1268.167358398438 110.0548629760742 -1265.0126953125 107.9236602783203 C -1261.888793945312 105.8132629394531 -1258.950927734375 103.3893661499023 -1256.280883789062 100.7192611694336 C -1253.611572265625 98.05006408691406 -1251.187622070312 95.11226654052734 -1249.076416015625 91.98746490478516 C -1246.945678710938 88.83346557617188 -1245.115478515625 85.46156311035156 -1243.63671875 81.96556091308594 C -1240.560302734375 74.69176483154297 -1239.000366210938 66.96516418457031 -1239.000366210938 59.00036239624023 C -1239.000366210938 56.3255615234375 -1239.181396484375 53.63396453857422 -1239.538208007812 51.00026321411133 L -914.0004272460938 51.00026321411133 L -914.0004272460938 141.0002593994141 L -914.0004272460938 141.0012664794922 Z"/></g><path class="o" d="M29.271,18A3.474,3.474,0,0,1,31.5,14.759a13.772,13.772,0,0,0-1.666-4.015,3.521,3.521,0,0,1-1.413.3,3.467,3.467,0,0,1-3.171-4.88A13.73,13.73,0,0,0,21.241,4.5a3.471,3.471,0,0,1-6.483,0,13.772,13.772,0,0,0-4.015,1.666,3.467,3.467,0,0,1-3.171,4.88,3.406,3.406,0,0,1-1.413-.3A14.076,14.076,0,0,0,4.5,14.766a3.473,3.473,0,0,1,.007,6.483,13.772,13.772,0,0,0,1.666,4.015,3.468,3.468,0,0,1,4.577,4.577,13.852,13.852,0,0,0,4.015,1.666,3.465,3.465,0,0,1,6.469,0,13.772,13.772,0,0,0,4.015-1.666,3.472,3.472,0,0,1,4.577-4.577,13.852,13.852,0,0,0,1.666-4.015A3.491,3.491,0,0,1,29.271,18ZM18.063,23.618a5.625,5.625,0,1,1,5.625-5.625A5.623,5.623,0,0,1,18.063,23.618Z" transform="translate(562.5 957.5)"/><path class="o" d="M16.747,9.2,5.734,18.266v9.79a.956.956,0,0,0,.956.956l6.694-.017a.956.956,0,0,0,.951-.956V22.321a.956.956,0,0,1,.956-.956h3.823a.956.956,0,0,1,.956.956v5.713a.956.956,0,0,0,.956.959l6.691.019a.956.956,0,0,0,.956-.956v-9.8L17.661,9.2A.728.728,0,0,0,16.747,9.2Zm17.4,6.165L29.15,11.244V2.97a.717.717,0,0,0-.717-.717H25.088a.717.717,0,0,0-.717.717V7.308l-5.348-4.4a2.867,2.867,0,0,0-3.644,0L.259,15.36a.717.717,0,0,0-.1,1.009l1.523,1.852a.717.717,0,0,0,1.01.1L16.747,6.746a.728.728,0,0,1,.914,0L31.712,18.319a.717.717,0,0,0,1.009-.1l1.523-1.852a.717.717,0,0,0-.1-1.011Z" transform="translate(166.751 959.746)"/><g class="u" transform="matrix(1, 0, 0, 1, 0, 0)"><g class="p" transform="translate(329.5 880)"><circle class="r" cx="54.5" cy="54.5" r="54.5"/><circle class="s" cx="54.5" cy="54.5" r="54"/></g></g><path class="q" d="M37.056,22.078H25.808V10.83a1.865,1.865,0,1,0-3.73,0V22.078H10.83a1.865,1.865,0,0,0,0,3.73H22.078V37.056a1.865,1.865,0,1,0,3.73,0V25.808H37.056a1.865,1.865,0,1,0,0-3.73Z" transform="translate(360.057 910.535)"/></g></svg>