<svg xmlns="http://www.w3.org/2000/svg" xmlns:xlink="http://www.w3.org/1999/xlink" width="768" height="1673" viewBox="0 0 768 1673"><defs><style>.a{clip-path:url(#j);}.b,.l,.m,.q,.t,.w,.x{fill:#fff;}.b,.j{stroke:#e4e4e4;}.c,.e,.f,.g{fill:#9b9b9b;}.c{font-size:14px;}.c,.f,.g,.l,.n,.o{font-family:HelveticaNeue-Medium, Helvetica Neue;font-weight:500;}.d{fill:rgba(0,0,0,0.3);}.f,.q,.u{font-size:11px;}.g,.s{font-size:10px;}.h{fill:#f58a00;font-size:28px;}.h,.r,.v{font-family:HelveticaNeue-Bold, Helvetica Neue;}.h,.q,.r,.v{font-weight:700;}.ab,.i,.j{fill:none;}.i{stroke:#666;stroke-linejoin:round;stroke-width:3px;}.i,.j{stroke-linecap:round;}.k{fill:#0090e9;}.l,.n{font-size:17px;}.m{stroke:#c2c2c2;}.n{fill:#c2c2c2;}.o,.r,.s,.u,.v{fill:#707070;}.o{font-size:25px;}.p{fill:#666;}.q{font-family:HelveticaNeue-CondensedBold, Helvetica Neue;}.r{font-size:13px;}.s,.u{font-family:HelveticaNeue, Helvetica Neue;}.t{stroke:#707070;}.v{font-size:8px;}.y{fill:#abaaac;}.z{fill:#70c200;stroke:#efeded;}.aa,.ac{stroke:none;}.ac{fill:#e4e4e4;}.ad{filter:url(#g);}.ae{filter:url(#e);}.af{filter:url(#c);}.ag{filter:url(#a);}</style><filter id="a" x="71" y="343.235" width="626" height="167.652" filterUnits="userSpaceOnUse"><feOffset dy="3" input="SourceAlpha"/><feGaussianBlur stdDeviation="3" result="b"/><feFlood flood-opacity="0.161"/><feComposite operator="in" in2="b"/><feComposite in="SourceGraphic"/></filter><filter id="c" x="71" y="522.765" width="626" height="189.158" filterUnits="userSpaceOnUse"><feOffset dy="3" input="SourceAlpha"/><feGaussianBlur stdDeviation="3" result="d"/><feFlood flood-opacity="0.161"/><feComposite operator="in" in2="d"/><feComposite in="SourceGraphic"/></filter><filter id="e" x="71" y="723.765" width="626" height="756.243" filterUnits="userSpaceOnUse"><feOffset dy="3" input="SourceAlpha"/><feGaussianBlur stdDeviation="3" result="f"/><feFlood flood-opacity="0.161"/><feComposite operator="in" in2="f"/><feComposite in="SourceGraphic"/></filter><filter id="g" x="320.5" y="878" width="127" height="127" filterUnits="userSpaceOnUse"><feOffset dy="7" input="SourceAlpha"/><feGaussianBlur stdDeviation="3" result="h"/><feFlood flood-opacity="0.161"/><feComposite operator="in" in2="h"/><feComposite in="SourceGraphic"/></filter><clipPath id="j"><rect width="768" height="1673"/></clipPath></defs><g id="i" class="a"><rect class="w" width="768" height="1673"/><g class="b"><rect class="aa" width="768" height="44"/><rect class="ab" x="0.5" y="0.5" width="767" height="43"/></g><text class="c" transform="translate(91 28)"><tspan x="0" y="0">15:36</tspan></text><g transform="translate(639.462 13.085)"><path class="d" d="M18.389,4.82H16.87V3H13.23V4.82H11.71A1.216,1.216,0,0,0,10.5,6.03V8.46h4.978l.482-.91v.91H19.6V6.03A1.216,1.216,0,0,0,18.389,4.82Z" transform="translate(-10.5 -3)"/><path class="e" d="M15.96,16.095h1.82L14.14,22.92v-5H12.32L15.478,12H10.5V23.529a1.216,1.216,0,0,0,1.21,1.21h6.67a1.218,1.218,0,0,0,1.219-1.21V12H15.96Z" transform="translate(-10.5 -6.54)"/><text class="f" transform="translate(16.538 14.183)"><tspan x="0" y="0">78%</tspan></text></g><g transform="translate(579.216 11.612)"><g transform="translate(12.514 1.655)"><path class="d" d="M21.271,8.481V3L3,21.271H21.271Z" transform="translate(-3 -3)"/><path class="e" d="M16.7,24.2V10.5L3,24.2Z" transform="translate(-3 -5.932)"/></g><text class="g" transform="translate(0.104 10.388)"><tspan x="0" y="0">4G</tspan></text></g><path class="e" d="M7.266,4.952,6.178,3.864a7.928,7.928,0,0,0-3.133,5.97H4.566A6.423,6.423,0,0,1,7.266,4.952Zm9.422,4.882h1.521a7.976,7.976,0,0,0-3.133-5.97L14,4.952A6.461,6.461,0,0,1,16.688,9.834Zm-1.5.38a4.634,4.634,0,0,0-3.422-4.806V4.891a1.141,1.141,0,1,0-2.281,0v.517a4.62,4.62,0,0,0-3.422,4.806v3.8L4.543,15.537v.76H16.711v-.76L15.19,14.017Zm-4.563,8.365a1.332,1.332,0,0,0,.3-.03,1.543,1.543,0,0,0,1.1-.9,1.527,1.527,0,0,0,.114-.593H9.1A1.532,1.532,0,0,0,10.627,18.579Z" transform="translate(544.955 11.977)"/><path class="e" d="M10.391,3.394a6.354,6.354,0,1,0,4.493,1.861A6.312,6.312,0,0,0,10.391,3.394Zm0-1.466a7.82,7.82,0,1,1-7.82,7.82,7.82,7.82,0,0,1,7.82-7.82ZM9.413,12.68h1.955v1.955H9.413Zm0-7.82h1.955v5.865H9.413Z" transform="translate(500.789 13.142)"/><text class="h" transform="translate(219.5 159)"><tspan x="0" y="0">Ordem de Serviço - 5012</tspan></text><g transform="translate(88.5 97)"><path class="i" d="M4.5,18h27"/><path class="i" d="M4.5,9h27"/><path class="i" d="M4.5,27h27"/></g><g transform="translate(641.5 102.5)"><path class="i" d="M19.637,12.069A7.569,7.569,0,1,1,12.069,4.5a7.569,7.569,0,0,1,7.569,7.569Z"/><path class="i" d="M29.09,29.09l-4.115-4.115" transform="translate(-7.561 -7.561)"/></g><line class="j" x2="366" transform="translate(201.5 241.5)"/><circle class="k" cx="19" cy="19" r="19" transform="translate(182 222)"/><text class="l" transform="translate(192 248)"><tspan x="0" y="0">01</tspan></text><g class="m" transform="translate(271 222)"><circle class="aa" cx="19" cy="19" r="19"/><circle class="ab" cx="19" cy="19" r="18.5"/></g><text class="n" transform="translate(281 248)"><tspan x="0" y="0">02</tspan></text><g class="m" transform="translate(365 222)"><circle class="aa" cx="19" cy="19" r="19"/><circle class="ab" cx="19" cy="19" r="18.5"/></g><text class="n" transform="translate(374.5 248)"><tspan x="0" y="0">03</tspan></text><g class="m" transform="translate(454 222)"><circle class="aa" cx="19" cy="19" r="19"/><circle class="ab" cx="19" cy="19" r="18.5"/></g><text class="n" transform="translate(463.5 248)"><tspan x="0" y="0">04</tspan></text><g class="m" transform="translate(548 222)"><circle class="aa" cx="19" cy="19" r="19"/><circle class="ab" cx="19" cy="19" r="18.5"/></g><text class="n" transform="translate(557.5 248)"><tspan x="0" y="0">05</tspan></text><text class="o" transform="translate(292 314)"><tspan x="0" y="0">Dados Técnicos</tspan></text><g transform="translate(0 0.457)"><g class="ag" transform="matrix(1, 0, 0, 1, 0, -0.46)"><g class="b" transform="translate(80 349.24)"><rect class="aa" width="608" height="149.652" rx="18"/><rect class="ab" x="0.5" y="0.5" width="607" height="148.652" rx="17.5"/></g></g><g transform="translate(80 357.543)"><rect class="p" width="110" height="19" rx="6" transform="translate(0 0)"/><text class="q" transform="translate(14 14)"><tspan x="0" y="0">DADOS DA LIGAÇÃO:</tspan></text></g><g transform="translate(94 399.049)"><text class="r" transform="translate(0 13.494)"><tspan x="0" y="0">Grupo Tarifário</tspan></text><g transform="translate(0 27)"><text class="s" transform="translate(14 10.494)"><tspan x="0" y="0">Grupo B</tspan></text><g class="t" transform="translate(0 1.494)"><circle class="aa" cx="5" cy="5" r="5"/><circle class="ab" cx="5" cy="5" r="4.5"/></g></g><g transform="translate(0 49)"><text class="s" transform="translate(14 10.494)"><tspan x="0" y="0">Grupo B</tspan></text><g class="t" transform="translate(0 1.494)"><circle class="aa" cx="5" cy="5" r="5"/><circle class="ab" cx="5" cy="5" r="4.5"/></g></g></g><g transform="translate(220 399.049)"><text class="r" transform="translate(0 13.494)"><tspan x="0" y="0">Tipo de medição</tspan></text><g transform="translate(0 27)"><text class="u" transform="translate(15 10.494)"><tspan x="0" y="0">Direta</tspan></text><g class="t" transform="translate(0 1.494)"><ellipse class="aa" cx="5.5" cy="5" rx="5.5" ry="5"/><ellipse class="ab" cx="5.5" cy="5" rx="5" ry="4.5"/></g></g><g transform="translate(0 49)"><text class="s" transform="translate(15 10.494)"><tspan x="0" y="0">Indireta</tspan></text><g class="t" transform="translate(0 1.494)"><ellipse class="aa" cx="5.5" cy="5" rx="5.5" ry="5"/><ellipse class="ab" cx="5.5" cy="5" rx="5" ry="4.5"/></g></g></g><g transform="translate(356 399.957)"><text class="r" transform="translate(0 12.586)"><tspan x="0" y="0">Quantidade de elementos</tspan></text><g transform="translate(0 28)"><text class="u" transform="translate(14 9.586)"><tspan x="0" y="0">2</tspan></text><g class="t" transform="translate(0 0.586)"><circle class="aa" cx="5" cy="5" r="5"/><circle class="ab" cx="5" cy="5" r="4.5"/></g></g><g transform="translate(57 28)"><text class="u" transform="translate(14 9.586)"><tspan x="0" y="0">NA</tspan></text><g class="t" transform="translate(0 0.586)"><circle class="aa" cx="5" cy="5" r="5"/><circle class="ab" cx="5" cy="5" r="4.5"/></g></g><g transform="translate(0 50)"><text class="u" transform="translate(14 9.586)"><tspan x="0" y="0">3</tspan></text><g class="t" transform="translate(0 0.586)"><circle class="aa" cx="5" cy="5" r="5"/><circle class="ab" cx="5" cy="5" r="4.5"/></g></g></g><g transform="translate(539 399.666)"><text class="r" transform="translate(0 12.877)"><tspan x="0" y="0">Tipo de fornecimento</tspan></text><g transform="translate(0 27)"><text class="u" transform="translate(14 9.877)"><tspan x="0" y="0">Monofásico</tspan></text><g class="t" transform="translate(0 0.877)"><circle class="aa" cx="5" cy="5" r="5"/><circle class="ab" cx="5" cy="5" r="4.5"/></g></g><g transform="translate(0 49)"><text class="u" transform="translate(14 9.877)"><tspan x="0" y="0">Bifásico</tspan></text><g class="t" transform="translate(0 0.877)"><circle class="aa" cx="5" cy="5" r="5"/><circle class="ab" cx="5" cy="5" r="4.5"/></g></g><g transform="translate(0 71)"><text class="s" transform="translate(14 9.877)"><tspan x="0" y="0">Trifásico</tspan></text><g class="t" transform="translate(0 0.877)"><circle class="aa" cx="5" cy="5" r="5"/><circle class="ab" cx="5" cy="5" r="4.5"/></g></g></g></g><g transform="translate(0 179.986)"><g class="af" transform="matrix(1, 0, 0, 1, 0, -179.99)"><g class="b" transform="translate(80 528.76)"><rect class="aa" width="608" height="171.158" rx="18"/><rect class="ab" x="0.5" y="0.5" width="607" height="170.158" rx="17.5"/></g></g><g transform="translate(80 357.543)"><rect class="p" width="156" height="19" rx="6"/><text class="q" transform="translate(14 14)"><tspan x="0" y="0">DADOS DA TRANFORMAÇÃO:</tspan></text></g><g transform="translate(0 -179.986)"><g transform="translate(98 574.861)"><text class="r" transform="translate(18 13.139)"><tspan x="0" y="0">Transformador de Corrente (TC)</tspan></text><g class="t" transform="translate(0 3.139)"><circle class="aa" cx="5" cy="5" r="5"/><circle class="ab" cx="5" cy="5" r="4.5"/></g></g><g class="m" transform="translate(99 601)"><rect class="aa" width="121" height="18"/><rect class="ab" x="0.5" y="0.5" width="120" height="17"/></g><text class="u" transform="translate(104 614)"><tspan x="0" y="0">Nº</tspan></text><g transform="translate(137)"><g class="m" transform="translate(99 601)"><rect class="aa" width="121" height="18"/><rect class="ab" x="0.5" y="0.5" width="120" height="17"/></g><text class="u" transform="translate(104 614)"><tspan x="0" y="0">Nº</tspan></text></g><g transform="translate(277)"><g class="m" transform="translate(99 601)"><rect class="aa" width="121" height="18"/><rect class="ab" x="0.5" y="0.5" width="120" height="17"/></g><text class="u" transform="translate(104 614)"><tspan x="0" y="0">Nº</tspan></text></g><g transform="translate(417)"><g class="m" transform="translate(99 601)"><rect class="aa" width="121" height="18"/><rect class="ab" x="0.5" y="0.5" width="120" height="17"/></g><text class="u" transform="translate(104 614)"><tspan x="0" y="0">RTC</tspan></text></g></g><g transform="translate(0 -179.986)"><text class="r" transform="translate(116 647)"><tspan x="0" y="0">Transformador de Potencial (TP)</tspan></text><g transform="translate(0 54)"><g class="m" transform="translate(99 601)"><rect class="aa" width="121" height="18"/><rect class="ab" x="0.5" y="0.5" width="120" height="17"/></g><text class="u" transform="translate(104 614)"><tspan x="0" y="0">Nº</tspan></text></g><g transform="translate(137 54)"><g class="m" transform="translate(99 601)"><rect class="aa" width="121" height="18"/><rect class="ab" x="0.5" y="0.5" width="120" height="17"/></g><text class="u" transform="translate(104 614)"><tspan x="0" y="0">Nº</tspan></text></g><g transform="translate(417 54)"><g class="m" transform="translate(99 601)"><rect class="aa" width="121" height="18"/><rect class="ab" x="0.5" y="0.5" width="120" height="17"/></g><text class="u" transform="translate(104 614)"><tspan x="0" y="0">RTC</tspan></text></g><g transform="translate(277 54)"><g class="m" transform="translate(99 601)"><rect class="aa" width="121" height="18"/><rect class="ab" x="0.5" y="0.5" width="120" height="17"/></g><text class="u" transform="translate(104 614)"><tspan x="0" y="0">Nº</tspan></text></g><g class="t" transform="translate(98 637)"><circle class="aa" cx="5" cy="5" r="5"/><circle class="ab" cx="5" cy="5" r="4.5"/></g></g></g><g transform="translate(0 380.986)"><g class="ae" transform="matrix(1, 0, 0, 1, 0, -380.99)"><g class="b" transform="translate(80 729.76)"><rect class="aa" width="608" height="738.243" rx="18"/><rect class="ab" x="0.5" y="0.5" width="607" height="737.243" rx="17.5"/></g></g><g transform="translate(80 357.543)"><rect class="p" width="156" height="19" rx="6"/><text class="q" transform="translate(14 14)"><tspan x="0" y="0">DADOS DA TRANFORMAÇÃO:</tspan></text></g></g><g transform="translate(0 22)"><text class="r" transform="translate(113 810)"><tspan x="0" y="0">Medidor KWh</tspan></text><g transform="translate(-5 225)"><g class="m" transform="translate(99 601)"><rect class="aa" width="121" height="18"/><rect class="ab" x="0.5" y="0.5" width="120" height="17"/></g></g><g transform="translate(161 74)"><text class="r" transform="translate(123 810)"><tspan x="0" y="0">Constante</tspan></text><g transform="translate(-5 225)"><g class="m" transform="translate(99 601)"><rect class="aa" width="121" height="18"/><rect class="ab" x="0.5" y="0.5" width="120" height="17"/></g></g></g><g transform="translate(317 74)"><text class="r" transform="translate(133 810)"><tspan x="0" y="0">Leitura</tspan></text><g transform="translate(-5 225)"><g class="m" transform="translate(99 601)"><rect class="aa" width="121" height="18"/><rect class="ab" x="0.5" y="0.5" width="120" height="17"/></g></g></g><g transform="translate(456 74)"><text class="r" transform="translate(114 795)"><tspan x="0" y="0">Tipo do Medidor</tspan></text><text class="v" transform="translate(114 820)"><tspan x="0" y="0">Mono</tspan></text><text class="v" transform="translate(161 820)"><tspan x="0" y="0">Bi</tspan></text><text class="v" transform="translate(202 820)"><tspan x="0" y="0">Tri</tspan></text><g transform="translate(15 225)"><g class="m" transform="translate(99 601)"><rect class="aa" width="20" height="18"/><rect class="ab" x="0.5" y="0.5" width="19" height="17"/></g></g><g transform="translate(56 225)"><g class="m" transform="translate(99 601)"><rect class="aa" width="20" height="18"/><rect class="ab" x="0.5" y="0.5" width="19" height="17"/></g></g><g transform="translate(97 225)"><g class="m" transform="translate(99 601)"><rect class="aa" width="20" height="18"/><rect class="ab" x="0.5" y="0.5" width="19" height="17"/></g></g></g><g transform="translate(0 74)"><text class="r" transform="translate(127 795)"><tspan x="0" y="0">Corrente</tspan></text><g transform="translate(-5 225)"><g class="m" transform="translate(99 601)"><rect class="aa" width="121" height="18"/><rect class="ab" x="0.5" y="0.5" width="120" height="17"/></g></g><g transform="translate(-5 202)"><g class="m" transform="translate(99 601)"><rect class="aa" width="121" height="18"/><rect class="ab" x="0.5" y="0.5" width="120" height="17"/></g></g><text class="u" transform="translate(97 816)"><tspan x="0" y="0">Máx</tspan></text><text class="u" transform="translate(97 839)"><tspan x="0" y="0">Min</tspan></text></g><text class="r" transform="translate(333 810)"><tspan x="0" y="0">Ano</tspan></text><g transform="translate(215 225)"><g class="m" transform="translate(99 601)"><rect class="aa" width="62" height="18"/><rect class="ab" x="0.5" y="0.5" width="61" height="17"/></g></g><text class="r" transform="translate(398 810)"><tspan x="0" y="0">Nº Série</tspan></text><g transform="translate(293 225)"><g class="m" transform="translate(99 601)"><rect class="aa" width="62" height="18"/><rect class="ab" x="0.5" y="0.5" width="61" height="17"/></g></g><text class="r" transform="translate(619 810)"><tspan x="0" y="0">Tensão</tspan></text><g transform="translate(511 225)"><g class="m" transform="translate(99 601)"><rect class="aa" width="62" height="18"/><rect class="ab" x="0.5" y="0.5" width="61" height="17"/></g></g><text class="r" transform="translate(485 810)"><tspan x="0" y="0">Nª Patrimônio</tspan></text><g transform="translate(371 225)"><g class="m" transform="translate(99 601)"><rect class="aa" width="116" height="18"/><rect class="ab" x="0.5" y="0.5" width="115" height="17"/></g></g><text class="r" transform="translate(235 810)"><tspan x="0" y="0">Fabricante</tspan></text><g transform="translate(137 225)"><g class="m" transform="translate(99 601)"><rect class="aa" width="62" height="18"/><rect class="ab" x="0.5" y="0.5" width="61" height="17"/></g></g><g transform="translate(0 -22)"><rect width="88" height="19" rx="6" transform="translate(80 783)"/><text class="q" transform="translate(99 797)"><tspan x="0" y="0">Encontrado</tspan></text></g></g><g transform="translate(0 254)"><text class="r" transform="translate(113 810)"><tspan x="0" y="0">Medidor KWh</tspan></text><g transform="translate(-5 225)"><g class="m" transform="translate(99 601)"><rect class="aa" width="121" height="18"/><rect class="ab" x="0.5" y="0.5" width="120" height="17"/></g></g><g transform="translate(161 74)"><text class="r" transform="translate(123 810)"><tspan x="0" y="0">Constante</tspan></text><g transform="translate(-5 225)"><g class="m" transform="translate(99 601)"><rect class="aa" width="121" height="18"/><rect class="ab" x="0.5" y="0.5" width="120" height="17"/></g></g></g><g transform="translate(317 74)"><text class="r" transform="translate(133 810)"><tspan x="0" y="0">Leitura</tspan></text><g transform="translate(-5 225)"><g class="m" transform="translate(99 601)"><rect class="aa" width="121" height="18"/><rect class="ab" x="0.5" y="0.5" width="120" height="17"/></g></g></g><g transform="translate(456 74)"><text class="r" transform="translate(114 795)"><tspan x="0" y="0">Tipo do Medidor</tspan></text><text class="v" transform="translate(114 820)"><tspan x="0" y="0">Mono</tspan></text><text class="v" transform="translate(161 820)"><tspan x="0" y="0">Bi</tspan></text><text class="v" transform="translate(202 820)"><tspan x="0" y="0">Tri</tspan></text><g transform="translate(15 225)"><g class="m" transform="translate(99 601)"><rect class="aa" width="20" height="18"/><rect class="ab" x="0.5" y="0.5" width="19" height="17"/></g></g><g transform="translate(56 225)"><g class="m" transform="translate(99 601)"><rect class="aa" width="20" height="18"/><rect class="ab" x="0.5" y="0.5" width="19" height="17"/></g></g><g transform="translate(97 225)"><g class="m" transform="translate(99 601)"><rect class="aa" width="20" height="18"/><rect class="ab" x="0.5" y="0.5" width="19" height="17"/></g></g></g><g transform="translate(0 74)"><text class="r" transform="translate(127 795)"><tspan x="0" y="0">Corrente</tspan></text><g transform="translate(-5 225)"><g class="m" transform="translate(99 601)"><rect class="aa" width="121" height="18"/><rect class="ab" x="0.5" y="0.5" width="120" height="17"/></g></g><g transform="translate(-5 202)"><g class="m" transform="translate(99 601)"><rect class="aa" width="121" height="18"/><rect class="ab" x="0.5" y="0.5" width="120" height="17"/></g></g><text class="u" transform="translate(97 816)"><tspan x="0" y="0">Máx</tspan></text><text class="u" transform="translate(97 839)"><tspan x="0" y="0">Min</tspan></text></g><text class="r" transform="translate(333 810)"><tspan x="0" y="0">Ano</tspan></text><g transform="translate(215 225)"><g class="m" transform="translate(99 601)"><rect class="aa" width="62" height="18"/><rect class="ab" x="0.5" y="0.5" width="61" height="17"/></g></g><text class="r" transform="translate(398 810)"><tspan x="0" y="0">Nº Série</tspan></text><g transform="translate(293 225)"><g class="m" transform="translate(99 601)"><rect class="aa" width="62" height="18"/><rect class="ab" x="0.5" y="0.5" width="61" height="17"/></g></g><text class="r" transform="translate(619 810)"><tspan x="0" y="0">Tensão</tspan></text><g transform="translate(511 225)"><g class="m" transform="translate(99 601)"><rect class="aa" width="62" height="18"/><rect class="ab" x="0.5" y="0.5" width="61" height="17"/></g></g><text class="r" transform="translate(485 810)"><tspan x="0" y="0">Nª Patrimônio</tspan></text><g transform="translate(371 225)"><g class="m" transform="translate(99 601)"><rect class="aa" width="116" height="18"/><rect class="ab" x="0.5" y="0.5" width="115" height="17"/></g></g><text class="r" transform="translate(235 810)"><tspan x="0" y="0">Fabricante</tspan></text><g transform="translate(137 225)"><g class="m" transform="translate(99 601)"><rect class="aa" width="62" height="18"/><rect class="ab" x="0.5" y="0.5" width="61" height="17"/></g></g><g transform="translate(0 -20)"><rect width="88" height="19" rx="6" transform="translate(80 783)"/><text class="q" transform="translate(104 797)"><tspan x="0" y="0">Instalado</tspan></text></g></g><g transform="translate(0 -0.001)"><rect class="w" width="768" height="90" transform="translate(0 934)"/><g class="x" transform="translate(1682 883)"><path class="aa" d="M -914.5004272460938 140.5002593994141 L -1681.500122070312 140.5002593994141 L -1681.500122070312 51.50026321411133 L -1357.031982421875 51.50026321411133 C -1357.3427734375 53.97473526000977 -1357.500244140625 56.49478530883789 -1357.500244140625 59.00036239624023 C -1357.500244140625 67.03216552734375 -1355.927001953125 74.82426452636719 -1352.82421875 82.16036224365234 C -1351.332885742188 85.68616485595703 -1349.4873046875 89.08656311035156 -1347.33837890625 92.26736450195312 C -1345.20947265625 95.41836547851562 -1342.765014648438 98.38096618652344 -1340.0732421875 101.0728607177734 C -1337.3798828125 103.7658615112305 -1334.417236328125 106.2101593017578 -1331.267578125 108.3379592895508 C -1328.086181640625 110.4871597290039 -1324.685668945312 112.3328628540039 -1321.160522460938 113.823860168457 C -1313.824462890625 116.9266662597656 -1306.032104492188 118.4998626708984 -1297.999877929688 118.4998626708984 C -1289.9677734375 118.4998626708984 -1282.175537109375 116.9266662597656 -1274.839721679688 113.823860168457 C -1271.314819335938 112.3330612182617 -1267.914306640625 110.4873657226562 -1264.732788085938 108.3379592895508 C -1261.582397460938 106.2097625732422 -1258.619873046875 103.7653656005859 -1255.92724609375 101.0728607177734 C -1253.235595703125 98.38116455078125 -1250.791137695312 95.41856384277344 -1248.662109375 92.26736450195312 C -1246.51318359375 89.08656311035156 -1244.667602539062 85.68616485595703 -1243.17626953125 82.16036224365234 C -1240.073486328125 74.82436370849609 -1238.500366210938 67.03226470947266 -1238.500366210938 59.00036239624023 C -1238.500366210938 56.49497222900391 -1238.657836914062 53.97489547729492 -1238.96875 51.50026321411133 L -914.5004272460938 51.50026321411133 L -914.5004272460938 140.5002593994141 Z"/><path class="ac" d="M -915.0004272460938 140.0002593994141 L -915.0004272460938 52.00026321411133 L -1238.404663085938 52.00026321411133 C -1238.13623046875 54.31439590454102 -1238.000366210938 56.66371154785156 -1238.000366210938 59.00036239624023 C -1238.000366210938 67.09946441650391 -1239.586791992188 74.95716094970703 -1242.715698242188 82.35516357421875 C -1244.219604492188 85.91065979003906 -1246.080810546875 89.33975982666016 -1248.247802734375 92.54726409912109 C -1250.394653320312 95.72486114501953 -1252.859497070312 98.71216583251953 -1255.57373046875 101.4263610839844 C -1258.288818359375 104.1414642333984 -1261.276123046875 106.6062622070312 -1264.452880859375 108.7522659301758 C -1267.661254882812 110.9197616577148 -1271.09033203125 112.7810592651367 -1274.644897460938 114.2843627929688 C -1282.042724609375 117.4133605957031 -1289.900390625 118.9998626708984 -1297.999877929688 118.9998626708984 C -1306.099365234375 118.9998626708984 -1313.957275390625 117.4133605957031 -1321.355224609375 114.2843627929688 C -1324.910278320312 112.78076171875 -1328.33935546875 110.919563293457 -1331.547485351562 108.7522659301758 C -1334.723388671875 106.6066665649414 -1337.710815429688 104.141960144043 -1340.4267578125 101.4263610839844 C -1343.14111328125 98.71195983886719 -1345.60595703125 95.72466278076172 -1347.752685546875 92.54726409912109 C -1349.919677734375 89.33975982666016 -1351.780883789062 85.91065979003906 -1353.284790039062 82.35506439208984 C -1356.413696289062 74.95706176757812 -1358.000244140625 67.09946441650391 -1358.000244140625 59.00036239624023 C -1358.000244140625 56.66370391845703 -1357.864379882812 54.31410980224609 -1357.595947265625 52.00026321411133 L -1681.000122070312 52.00026321411133 L -1681.000122070312 140.0002593994141 L -915.0004272460938 140.0002593994141 M -914.0004272460938 141.0012664794922 L -914.0004272460938 141.0002593994141 L -1682.000122070312 141.0002593994141 L -1682.000122070312 51.00026321411133 L -1356.46240234375 51.00026321411133 C -1356.818969726562 53.63126373291016 -1357.000244140625 56.32246398925781 -1357.000244140625 59.00036239624023 C -1357.000244140625 66.96526336669922 -1355.440185546875 74.69186401367188 -1352.36376953125 81.96556091308594 C -1350.885009765625 85.46156311035156 -1349.054809570312 88.83346557617188 -1346.924072265625 91.98746490478516 C -1344.812744140625 95.11236572265625 -1342.388793945312 98.05016326904297 -1339.719604492188 100.7192611694336 C -1337.049194335938 103.3894653320312 -1334.111450195312 105.813362121582 -1330.987670898438 107.9236602783203 C -1327.8330078125 110.0547637939453 -1324.461181640625 111.8849639892578 -1320.965698242188 113.3633651733398 C -1313.691772460938 116.4398651123047 -1305.964965820312 117.9998626708984 -1297.999877929688 117.9998626708984 C -1290.034912109375 117.9998626708984 -1282.308227539062 116.4398651123047 -1275.034545898438 113.3633651733398 C -1271.539184570312 111.8850631713867 -1268.167358398438 110.0548629760742 -1265.0126953125 107.9236602783203 C -1261.888793945312 105.8132629394531 -1258.950927734375 103.3893661499023 -1256.280883789062 100.7192611694336 C -1253.611572265625 98.05006408691406 -1251.187622070312 95.11226654052734 -1249.076416015625 91.98746490478516 C -1246.945678710938 88.83346557617188 -1245.115478515625 85.46156311035156 -1243.63671875 81.96556091308594 C -1240.560302734375 74.69176483154297 -1239.000366210938 66.96516418457031 -1239.000366210938 59.00036239624023 C -1239.000366210938 56.3255615234375 -1239.181396484375 53.63396453857422 -1239.538208007812 51.00026321411133 L -914.0004272460938 51.00026321411133 L -914.0004272460938 141.0002593994141 L -914.0004272460938 141.0012664794922 Z"/></g><path class="y" d="M29.271,18A3.474,3.474,0,0,1,31.5,14.759a13.772,13.772,0,0,0-1.666-4.015,3.521,3.521,0,0,1-1.413.3,3.467,3.467,0,0,1-3.171-4.88A13.73,13.73,0,0,0,21.241,4.5a3.471,3.471,0,0,1-6.483,0,13.772,13.772,0,0,0-4.015,1.666,3.467,3.467,0,0,1-3.171,4.88,3.406,3.406,0,0,1-1.413-.3A14.076,14.076,0,0,0,4.5,14.766a3.473,3.473,0,0,1,.007,6.483,13.772,13.772,0,0,0,1.666,4.015,3.468,3.468,0,0,1,4.577,4.577,13.852,13.852,0,0,0,4.015,1.666,3.465,3.465,0,0,1,6.469,0,13.772,13.772,0,0,0,4.015-1.666,3.472,3.472,0,0,1,4.577-4.577,13.852,13.852,0,0,0,1.666-4.015A3.491,3.491,0,0,1,29.271,18ZM18.063,23.618a5.625,5.625,0,1,1,5.625-5.625A5.623,5.623,0,0,1,18.063,23.618Z" transform="translate(562.5 957.5)"/><path class="y" d="M16.747,9.2,5.734,18.266v9.79a.956.956,0,0,0,.956.956l6.694-.017a.956.956,0,0,0,.951-.956V22.321a.956.956,0,0,1,.956-.956h3.823a.956.956,0,0,1,.956.956v5.713a.956.956,0,0,0,.956.959l6.691.019a.956.956,0,0,0,.956-.956v-9.8L17.661,9.2A.728.728,0,0,0,16.747,9.2Zm17.4,6.165L29.15,11.244V2.97a.717.717,0,0,0-.717-.717H25.088a.717.717,0,0,0-.717.717V7.308l-5.348-4.4a2.867,2.867,0,0,0-3.644,0L.259,15.36a.717.717,0,0,0-.1,1.009l1.523,1.852a.717.717,0,0,0,1.01.1L16.747,6.746a.728.728,0,0,1,.914,0L31.712,18.319a.717.717,0,0,0,1.009-.1l1.523-1.852a.717.717,0,0,0-.1-1.011Z" transform="translate(166.751 959.746)"/><g transform="translate(0 0.001)"><g class="ad" transform="matrix(1, 0, 0, 1, 0, 0)"><g class="z" transform="translate(329.5 880)"><circle class="aa" cx="54.5" cy="54.5" r="54.5"/><circle class="ab" cx="54.5" cy="54.5" r="54"/></g></g><path class="w" d="M39.995,14.87l-2.429-2.5a.522.522,0,0,0-.386-.166h0a.5.5,0,0,0-.386.166L19.957,29.333l-6.127-6.127a.534.534,0,0,0-.773,0L10.6,25.662a.55.55,0,0,0,0,.787l7.728,7.728a2.444,2.444,0,0,0,1.615.787,2.561,2.561,0,0,0,1.6-.759h.014L40.009,15.656A.59.59,0,0,0,39.995,14.87Z" transform="translate(361 910.722)"/></g></g><g transform="translate(0 459)"><rect width="88" height="19" rx="6" transform="translate(80 783)"/><text class="q" transform="translate(96 797)"><tspan x="0" y="0">Observações</tspan></text></g><g transform="translate(96 1279.506)"><text class="r" transform="translate(0 13.494)"><tspan x="0" y="0">Localização dos Medidores</tspan></text><g transform="translate(0 41)"><text class="s" transform="translate(14 10.494)"><tspan x="0" y="0">Interno ao imóvel</tspan></text><g class="t" transform="translate(0 1.494)"><circle class="aa" cx="5" cy="5" r="5"/><circle class="ab" cx="5" cy="5" r="4.5"/></g></g><g transform="translate(160 41)"><text class="s" transform="translate(14 10.494)"><tspan x="0" y="0">No poste da distribuidora</tspan></text><g class="t" transform="translate(0 1.494)"><circle class="aa" cx="5" cy="5" r="5"/><circle class="ab" cx="5" cy="5" r="4.5"/></g></g><g transform="translate(358 40)"><text class="s" transform="translate(14 10.494)"><tspan x="0" y="0">No interior do condomínio (Vertical/horizontal)</tspan></text><g class="t" transform="translate(0 1.494)"><circle class="aa" cx="5" cy="5" r="5"/><circle class="ab" cx="5" cy="5" r="4.5"/></g></g><g transform="translate(358 81)"><text class="s" transform="translate(14 10.494)"><tspan x="0" y="0">Outro:</tspan></text><g class="t" transform="translate(0 1.494)"><circle class="aa" cx="5" cy="5" r="5"/><circle class="ab" cx="5" cy="5" r="4.5"/></g><g class="m" transform="translate(0 20.494)"><rect class="aa" width="217" height="16"/><rect class="ab" x="0.5" y="0.5" width="216" height="15"/></g></g><g transform="translate(0 81)"><text class="s" transform="translate(14 10.494)"><tspan x="0" y="0">Externo ao imóvel</tspan></text><g class="t" transform="translate(0 1.494)"><circle class="aa" cx="5" cy="5" r="5"/><circle class="ab" cx="5" cy="5" r="4.5"/></g></g><g transform="translate(160 81)"><text class="s" transform="translate(14 10.494)"><tspan x="0" y="0">No quadro de medição agrupada</tspan></text><g class="t" transform="translate(0 1.494)"><circle class="aa" cx="5" cy="5" r="5"/><circle class="ab" cx="5" cy="5" r="4.5"/></g></g></g></g></svg>